#N canvas 0 0 1252 623 10;
#X obj 864 323 bng 52 250 50 0 empty empty empty 0 -6 0 10 -262144
-1 -1;
#X msg 864 387 \; pd dsp 1;
#X msg 929 387 \; pd dsp 0;
#X obj 929 323 bng 53 250 50 0 empty empty empty 0 -6 0 10 -262144
-1 -1;
#X msg 311 69 396;
#X msg 351 69 417;
#X msg 460 69 639;
#X msg 498 69 741;
#X msg 539 69 852;
#X obj 315 355 -;
#X obj 476 355 +;
#X floatatom 392 108 4 0 0 0 freq - -, f 4;
#X floatatom 393 261 5 0 0 0 offset - -, f 5;
#X obj 30 529 ctlin;
#X floatatom 30 558 5 0 0 0 - - -, f 5;
#X msg 273 69 147;
#X floatatom 72 558 5 0 0 0 - - -, f 5;
#X obj 359 501 env~;
#X obj 396 392 vu 23 80 empty empty -1 -8 0 10 -66577 -1 1 0;
#X obj 395 530 - 100;
#X msg 420 69 528;
#X msg 233 201 0.1;
#X msg 311 201 0.5;
#X msg 420 201 1;
#N canvas 0 0 1252 623 harm02 0;
#X floatatom 785 186 5 0 0 0 - - -, f 5;
#X obj 785 152 / 2;
#X floatatom 847 186 5 0 0 0 - - -, f 5;
#X obj 847 152 * 1;
#X obj 785 217 osc~;
#X obj 847 217 osc~;
#X obj 847 488 *~;
#X obj 785 488 *~;
#X floatatom 569 110 5 0 0 0 - - -, f 5;
#X floatatom 659 186 5 0 0 0 - - -, f 5;
#X floatatom 721 186 5 0 0 0 - - -, f 5;
#X obj 659 217 osc~;
#X obj 721 217 osc~;
#X obj 721 488 *~;
#X obj 659 488 *~;
#X obj 721 152 / 3;
#X obj 659 152 / 4;
#X floatatom 530 186 5 0 0 0 - - -, f 5;
#X floatatom 595 186 5 0 0 0 - - -, f 5;
#X obj 530 222 osc~;
#X obj 595 217 osc~;
#X obj 594 488 *~;
#X obj 533 488 *~;
#X obj 595 152 / 5;
#X obj 530 152 / 6;
#X floatatom 409 186 5 0 0 0 - - -, f 5;
#X floatatom 470 186 5 0 0 0 - - -, f 5;
#X obj 409 222 osc~;
#X obj 470 222 osc~;
#X obj 470 488 *~;
#X obj 409 488 *~;
#X obj 470 152 / 7;
#X obj 409 152 / 8;
#X floatatom 625 307 5 0 0 0 - - -, f 5;
#X obj 569 83 inlet;
#X obj 570 551 outlet~;
#X obj 625 278 inlet;
#X obj 413 402 pack 0 10;
#X obj 425 425 line~;
#X obj 413 368 midi2rms protools, f 9;
#X obj 474 402 pack 0 10;
#X obj 485 425 line~;
#X obj 474 368 midi2rms protools, f 9;
#X floatatom 413 331 5 0.1 100 0 - - -, f 5;
#X floatatom 474 331 5 0.1 100 0 - - -, f 5;
#X obj 536 402 pack 0 10;
#X obj 546 425 line~;
#X obj 536 368 midi2rms protools, f 9;
#X floatatom 536 331 5 0.1 100 0 - - -, f 5;
#X obj 600 402 pack 0 10;
#X obj 608 425 line~;
#X obj 600 368 midi2rms protools, f 9;
#X floatatom 600 331 5 0.1 100 0 - - -, f 5;
#X obj 665 402 pack 0 10;
#X obj 673 425 line~;
#X obj 665 368 midi2rms protools, f 9;
#X floatatom 665 331 5 0.1 100 0 - - -, f 5;
#X obj 727 402 pack 0 10;
#X obj 734 425 line~;
#X obj 727 368 midi2rms protools, f 9;
#X floatatom 727 331 5 0.1 100 0 - - -, f 5;
#X obj 791 402 pack 0 10;
#X obj 799 425 line~;
#X obj 791 368 midi2rms protools, f 9;
#X floatatom 791 331 5 0.1 100 0 - - -, f 5;
#X obj 853 402 pack 0 10;
#X obj 863 425 line~;
#X obj 853 368 midi2rms protools, f 9;
#X floatatom 853 331 5 0.1 100 0 - - -, f 5;
#X obj 924 347 r vu;
#X obj 924 368 vu 27 80 empty empty -1 -8 0 10 -66577 -1 1 0;
#X obj 853 257 r rr1;
#X obj 791 257 r rr2;
#X obj 727 257 r rr3;
#X obj 665 257 r rr4;
#X obj 600 257 r rr5;
#X obj 536 257 r rr6;
#X obj 474 257 r rr7;
#X obj 413 257 r rr8;
#X obj 688 236 s lr4;
#X floatatom 284 185 5 0 0 0 - - -, f 5;
#X floatatom 348 185 5 0 0 0 - - -, f 5;
#X obj 284 221 osc~;
#X obj 348 221 osc~;
#X obj 348 486 *~;
#X obj 285 486 *~;
#X obj 289 401 pack 0 10;
#X obj 301 424 line~;
#X obj 289 369 midi2rms protools, f 9;
#X obj 350 401 pack 0 10;
#X obj 362 424 line~;
#X obj 350 369 midi2rms protools, f 9;
#X floatatom 289 332 5 0 0 0 - - -, f 5;
#X floatatom 350 332 5 0 0 0 - - -, f 5;
#X obj 348 153 / 9;
#X obj 285 153 / 10;
#X obj 350 256 r rr9;
#X obj 289 256 r rr10;
#X connect 0 0 4 0;
#X connect 1 0 0 0;
#X connect 2 0 5 0;
#X connect 3 0 2 0;
#X connect 4 0 7 0;
#X connect 5 0 6 0;
#X connect 6 0 35 0;
#X connect 7 0 35 0;
#X connect 8 0 1 0;
#X connect 8 0 3 0;
#X connect 8 0 15 0;
#X connect 8 0 16 0;
#X connect 8 0 23 0;
#X connect 8 0 24 0;
#X connect 8 0 31 0;
#X connect 8 0 32 0;
#X connect 8 0 94 0;
#X connect 8 0 95 0;
#X connect 9 0 11 0;
#X connect 9 0 79 0;
#X connect 10 0 12 0;
#X connect 11 0 14 0;
#X connect 12 0 13 0;
#X connect 13 0 35 0;
#X connect 14 0 35 0;
#X connect 15 0 10 0;
#X connect 16 0 9 0;
#X connect 17 0 19 0;
#X connect 18 0 20 0;
#X connect 19 0 22 0;
#X connect 20 0 21 0;
#X connect 21 0 35 0;
#X connect 22 0 35 0;
#X connect 23 0 18 0;
#X connect 24 0 17 0;
#X connect 25 0 27 0;
#X connect 26 0 28 0;
#X connect 27 0 30 0;
#X connect 28 0 29 0;
#X connect 29 0 35 0;
#X connect 30 0 35 0;
#X connect 31 0 26 0;
#X connect 32 0 25 0;
#X connect 33 0 68 0;
#X connect 33 0 64 0;
#X connect 33 0 60 0;
#X connect 33 0 56 0;
#X connect 33 0 52 0;
#X connect 33 0 48 0;
#X connect 33 0 44 0;
#X connect 33 0 43 0;
#X connect 34 0 8 0;
#X connect 36 0 33 0;
#X connect 37 0 38 0;
#X connect 38 0 30 1;
#X connect 39 0 37 0;
#X connect 40 0 41 0;
#X connect 41 0 29 1;
#X connect 42 0 40 0;
#X connect 43 0 39 0;
#X connect 44 0 42 0;
#X connect 45 0 46 0;
#X connect 46 0 22 1;
#X connect 47 0 45 0;
#X connect 48 0 47 0;
#X connect 49 0 50 0;
#X connect 50 0 21 1;
#X connect 51 0 49 0;
#X connect 52 0 51 0;
#X connect 53 0 54 0;
#X connect 54 0 14 1;
#X connect 55 0 53 0;
#X connect 56 0 55 0;
#X connect 57 0 58 0;
#X connect 58 0 13 1;
#X connect 59 0 57 0;
#X connect 60 0 59 0;
#X connect 61 0 62 0;
#X connect 62 0 7 1;
#X connect 63 0 61 0;
#X connect 64 0 63 0;
#X connect 65 0 66 0;
#X connect 66 0 6 1;
#X connect 67 0 65 0;
#X connect 68 0 67 0;
#X connect 69 0 70 0;
#X connect 71 0 68 0;
#X connect 72 0 64 0;
#X connect 73 0 60 0;
#X connect 74 0 56 0;
#X connect 75 0 52 0;
#X connect 76 0 48 0;
#X connect 77 0 44 0;
#X connect 78 0 43 0;
#X connect 80 0 82 0;
#X connect 81 0 83 0;
#X connect 82 0 85 0;
#X connect 83 0 84 0;
#X connect 84 0 35 0;
#X connect 85 0 35 0;
#X connect 86 0 87 0;
#X connect 87 0 85 1;
#X connect 88 0 86 0;
#X connect 89 0 90 0;
#X connect 90 0 84 1;
#X connect 91 0 89 0;
#X connect 92 0 88 0;
#X connect 93 0 91 0;
#X connect 94 0 81 0;
#X connect 95 0 80 0;
#X connect 96 0 93 0;
#X connect 97 0 92 0;
#X restore 476 416 pd harm02;
#X msg 273 201 0.618;
#X floatatom 476 386 5 0 0 0 - - -, f 5;
#X floatatom 315 386 5 0 0 0 - - -, f 5;
#X obj 390 337 / 2;
#X obj 585 25 bng 15 250 50 0 empty empty empty 17 7 0 10 -262144 -1
-1;
#X floatatom 585 70 5 0 0 0 - - -, f 5;
#N canvas 0 50 450 300 limiter 0;
#X obj 77 312 *~;
#X obj 110 71 env~;
#X obj 110 103 dbtorms;
#X obj 74 54 inlet~;
#X obj 77 337 outlet~;
#X obj 221 312 *~;
#X obj 221 54 inlet~;
#X obj 221 337 outlet~;
#X msg 110 169 1 \$1;
#X obj 110 203 /;
#X obj 110 235 min 1;
#X obj 110 137 + 0.5;
#X obj 110 269 lop~ 5;
#X connect 0 0 4 0;
#X connect 1 0 2 0;
#X connect 2 0 11 0;
#X connect 3 0 1 0;
#X connect 3 0 0 0;
#X connect 5 0 7 0;
#X connect 6 0 5 0;
#X connect 6 0 1 0;
#X connect 8 0 9 0;
#X connect 9 0 10 0;
#X connect 10 0 12 0;
#X connect 11 0 8 0;
#X connect 12 0 0 1;
#X connect 12 0 5 1;
#X restore 371 559 pd limiter;
#X obj 115 530 ctlin;
#X obj 113 557 ctlout;
#X obj 390 363 r reset;
#X obj 394 229 r reset;
#X msg 233 69 10;
#X obj 995 323 bng 52 250 50 0 empty empty empty 17 7 0 10 -262144
-1 -1;
#X obj 395 501 s vu;
#N canvas 201 130 450 324 reset 0;
#X msg 186 79 0;
#X obj 186 102 s reset;
#X obj 185 50 inlet;
#X connect 0 0 1 0;
#X connect 2 0 0 0;
#X restore 995 387 pd reset;
#X obj 644 235 tgl 20 0 empty empty empty 17 7 0 10 -262144 -1 -1 0
1;
#X obj 188 91 tgl 20 0 empty empty empty 17 7 0 10 -262144 -1 -1 0
1;
#X obj 113 91 tgl 20 0 empty empty empty 17 7 0 10 -262144 -1 -1 0
1;
#N canvas 840 250 450 372 freqInc 0;
#X obj 187 181 f;
#X obj 191 110 metro 100;
#X obj 227 181 outlet;
#X obj 191 83 inlet;
#X obj 119 150 inlet;
#X obj 204 137 + 1;
#X connect 0 0 5 0;
#X connect 1 0 0 0;
#X connect 3 0 1 0;
#X connect 4 0 0 1;
#X connect 5 0 0 1;
#X connect 5 0 2 0;
#X restore 188 112 pd freqInc;
#N canvas 840 250 450 372 freqDec 0;
#X obj 187 181 f;
#X obj 191 110 metro 100;
#X obj 227 181 outlet;
#X obj 191 83 inlet;
#X obj 119 150 inlet;
#X obj 204 137 - 1;
#X connect 0 0 5 0;
#X connect 1 0 0 0;
#X connect 3 0 1 0;
#X connect 4 0 0 1;
#X connect 5 0 0 1;
#X connect 5 0 2 0;
#X restore 113 112 pd freqDec;
#N canvas 840 250 450 372 offInc 0;
#X obj 187 181 f;
#X obj 191 110 metro 100;
#X obj 227 181 outlet;
#X obj 191 83 inlet;
#X obj 119 150 inlet;
#X obj 204 137 + 0.318;
#X connect 0 0 5 0;
#X connect 1 0 0 0;
#X connect 3 0 1 0;
#X connect 4 0 0 1;
#X connect 5 0 0 1;
#X connect 5 0 2 0;
#X restore 644 258 pd offInc;
#X obj 573 235 tgl 20 0 empty empty empty 17 7 0 10 -262144 -1 -1 0
1;
#N canvas 840 250 450 372 offDec 0;
#X obj 187 181 f;
#X obj 191 110 metro 100;
#X obj 227 181 outlet;
#X obj 204 137 - 0.318;
#X obj 191 83 inlet;
#X obj 119 150 inlet;
#X connect 0 0 3 0;
#X connect 1 0 0 0;
#X connect 3 0 0 1;
#X connect 3 0 2 0;
#X connect 4 0 1 0;
#X connect 5 0 0 1;
#X restore 573 259 pd offDec;
#X obj 315 447 *~ 0.1;
#X obj 476 447 *~ 0.1;
#X msg 923 239 devices;
#X floatatom 864 123 5 0 0 0 - - -, f 5;
#X obj 864 88 int;
#X msg 1036 239 close;
#X floatatom 903 123 5 0 0 0 - - -, f 5;
#X obj 903 88 int;
#X floatatom 941 123 5 0 0 0 - - -, f 5;
#X obj 941 88 int;
#X floatatom 978 123 5 0 0 0 - - -, f 5;
#X obj 978 88 int;
#X floatatom 1017 123 5 0 0 0 - - -, f 5;
#X obj 1017 88 int;
#X floatatom 1055 123 5 0 0 0 - - -, f 5;
#X obj 1055 88 int;
#X obj 876 153 t b f;
#X obj 927 153 t b f;
#X obj 1024 153 t b f;
#X obj 1073 153 t b f;
#X obj 864 190 pack \$1 \$2 \$3 \$4 \$5 \$6;
#X obj 975 153 t b f;
#X msg 864 215 print \$1r\$2g\$3b\$4q\$5w\$6e;
#X obj 864 269 comport 115200;
#X obj 388 295 t b f;
#N canvas 394 0 450 324 hue2rgb 0;
#X obj 194 13 div 10;
#X obj 275 13 mod 10;
#X obj 115 -24 div 100;
#X obj 194 -24 mod 100;
#X obj 194 -1 t f f;
#X obj 115 145 i;
#X obj 194 145 i;
#X obj 275 145 i;
#X obj 115 122 + 0.5;
#X obj 194 122 + 0.5;
#X obj 275 122 + 0.5;
#X obj 115 35 sel 9;
#X obj 115 56 8;
#X obj 194 35 sel 9;
#X obj 194 56 8;
#X obj 275 35 sel 9;
#X obj 275 56 8;
#X obj 115 79 / 8;
#X obj 194 79 / 8;
#X obj 275 79 / 8;
#X obj 115 101 * 255;
#X obj 194 101 * 255;
#X obj 275 101 * 255;
#X obj 115 -45 t f f;
#X obj 115 167 nbx 4 14 0 255 0 0 \$0-red empty Red 48 8 0 10 -262144
-1 -1 0 256 0;
#X obj 194 167 nbx 4 14 0 255 0 0 \$0-green empty Green 48 8 0 10 -262144
-1 -1 0 256 0;
#X obj 275 167 nbx 4 14 0 255 0 0 \$0-blue empty Blue 48 8 0 10 -262144
-1 -1 0 256 0;
#X obj 115 -81 inlet;
#X connect 0 0 13 0;
#X connect 1 0 15 0;
#X connect 2 0 11 0;
#X connect 3 0 4 0;
#X connect 4 0 0 0;
#X connect 4 1 1 0;
#X connect 5 0 24 0;
#X connect 6 0 25 0;
#X connect 7 0 26 0;
#X connect 8 0 5 0;
#X connect 9 0 6 0;
#X connect 10 0 7 0;
#X connect 11 0 12 0;
#X connect 11 1 17 0;
#X connect 12 0 17 0;
#X connect 13 0 14 0;
#X connect 13 1 18 0;
#X connect 14 0 18 0;
#X connect 15 0 16 0;
#X connect 15 1 19 0;
#X connect 16 0 19 0;
#X connect 17 0 20 0;
#X connect 18 0 21 0;
#X connect 19 0 22 0;
#X connect 20 0 8 0;
#X connect 21 0 9 0;
#X connect 22 0 10 0;
#X connect 23 0 2 0;
#X connect 23 1 3 0;
#X connect 27 0 23 0;
#X restore 30 499 pd hue2rgb;
#X obj 30 476 nbx 4 14 0 999 0 1 empty empty empty 48 8 0 10 -262144
-1 -1 0 256 0;
#X obj 1089 88 r reset;
#X obj 864 54 r r1;
#X obj 903 54 r g1;
#X obj 941 54 r b1;
#X obj 978 54 r r2;
#X obj 1017 54 r g2;
#X obj 1055 54 r b2;
#N canvas 0 0 1252 623 oscOUT 0;
#X obj 8 83 udpreceive 8000;
#X obj 8 107 unpackOSC;
#X obj 8 131 routeOSC /cc;
#X obj 29 199 s r1;
#X obj 91 175 routeOSC /g1;
#X obj 110 199 s g1;
#X obj 173 175 routeOSC /b1;
#X obj 193 199 s b1;
#X obj 8 224 routeOSC /r2;
#X obj 91 224 routeOSC /g2;
#X obj 173 224 routeOSC /b2;
#X obj 193 251 s b2;
#X obj 110 251 s g2;
#X obj 29 251 s r2;
#X obj 8 175 routeOSC /r1;
#X obj 258 176 routeOSC /1;
#X obj 258 221 routeOSC /2;
#X obj 258 263 routeOSC /3;
#X obj 258 305 routeOSC /4;
#X obj 336 176 routeOSC /5;
#X obj 336 221 routeOSC /6;
#X obj 336 263 routeOSC /7;
#X obj 336 305 routeOSC /8;
#X obj 427 149 routeOSC /right;
#X obj 336 149 routeOSC /left;
#X obj 427 175 routeOSC /1;
#X obj 427 221 routeOSC /2;
#X obj 427 260 routeOSC /3;
#X obj 427 305 routeOSC /4;
#X obj 503 175 routeOSC /5;
#X obj 503 221 routeOSC /6;
#X obj 503 260 routeOSC /7;
#X obj 503 305 routeOSC /8;
#X obj 258 198 s l1;
#X obj 258 241 s l2;
#X obj 258 283 s l3;
#X obj 336 198 s l5;
#X obj 336 241 s l6;
#X obj 336 283 s l7;
#X obj 258 329 s l4;
#X obj 336 329 s l8;
#X obj 427 197 s rr1;
#X obj 427 240 s rr2;
#X obj 427 282 s rr3;
#X obj 503 197 s rr5;
#X obj 503 240 s rr6;
#X obj 503 282 s rr7;
#X obj 427 326 s rr4;
#X obj 503 326 s rr8;
#X obj 884 150 routeOSC /on;
#X obj 971 150 routeOSC /off;
#X obj 1058 150 routeOSC /reset;
#X obj 884 173 s on;
#X obj 971 173 s off;
#X obj 1058 173 s resetMain;
#X obj 1007 204 routeOSC /freqInc;
#X obj 884 204 routeOSC /freqDec;
#X obj 1004 252 routeOSC /offInc;
#X obj 883 251 routeOSC /offDec;
#X obj 884 224 s fD;
#X obj 1007 224 s fI;
#X obj 1004 275 s oI;
#X obj 883 271 s oD;
#X obj 1160 150 routeOSC /random;
#X obj 1160 170 s rand;
#X obj 9 275 print;
#X obj 650 41 routeOSC /volume;
#X obj 650 101 routeOSC /2;
#X obj 650 61 routeOSC /1;
#X obj 767 54 routeOSC /multixzy;
#X obj 767 78 routeOSC /1;
#X floatatom 767 102 9 0 0 0 - - -, f 9;
#X obj 493 89 routeOSC /encoder;
#X floatatom 493 113 5 0 0 0 - - -, f 5;
#X obj 650 80 s plus;
#X obj 650 121 s minus;
#X obj 691 152 routeOSC /preset;
#X obj 581 221 routeOSC /1;
#X obj 732 218 routeOSC /1;
#X obj 581 265 routeOSC /2;
#X obj 581 307 routeOSC /3;
#X obj 581 350 routeOSC /4;
#X obj 655 221 routeOSC /5;
#X obj 655 264 routeOSC /6;
#X obj 655 307 routeOSC /7;
#X obj 655 350 routeOSC /8;
#X obj 732 263 routeOSC /2;
#X obj 732 306 routeOSC /3;
#X obj 732 349 routeOSC /4;
#X obj 809 218 routeOSC /5;
#X obj 809 263 routeOSC /6;
#X obj 809 306 routeOSC /7;
#X obj 809 349 routeOSC /8;
#X obj 581 241 s p1;
#X obj 581 287 s p2;
#X obj 581 329 s p3;
#X obj 581 371 s p4;
#X obj 655 241 s p5;
#X obj 655 287 s p6;
#X obj 655 329 s p7;
#X obj 655 371 s p8;
#X obj 732 241 s p9;
#X obj 732 287 s p10;
#X obj 732 329 s p11;
#X obj 732 371 s p12;
#X obj 809 241 s p13;
#X obj 809 287 s p14;
#X obj 809 329 s p15;
#X obj 809 371 s p16;
#X obj 655 186 routeOSC /2;
#X obj 732 186 routeOSC /1;
#X obj 427 346 routeOSC /9;
#X obj 503 346 routeOSC /10;
#X obj 427 367 s rr9;
#X obj 504 367 s rr10;
#X obj 258 353 routeOSC /9;
#X obj 336 353 routeOSC /10;
#X obj 258 377 s l9;
#X obj 336 377 s l10;
#X connect 0 0 1 0;
#X connect 1 0 2 0;
#X connect 2 0 14 0;
#X connect 2 0 4 0;
#X connect 2 0 6 0;
#X connect 2 0 8 0;
#X connect 2 0 9 0;
#X connect 2 0 10 0;
#X connect 2 0 24 0;
#X connect 2 0 23 0;
#X connect 2 0 49 0;
#X connect 2 0 50 0;
#X connect 2 0 51 0;
#X connect 2 0 55 0;
#X connect 2 0 56 0;
#X connect 2 0 57 0;
#X connect 2 0 58 0;
#X connect 2 0 63 0;
#X connect 2 0 69 0;
#X connect 2 0 66 0;
#X connect 2 0 72 0;
#X connect 2 0 76 0;
#X connect 4 0 5 0;
#X connect 6 0 7 0;
#X connect 8 0 13 0;
#X connect 9 0 12 0;
#X connect 10 0 11 0;
#X connect 14 0 3 0;
#X connect 15 0 33 0;
#X connect 16 0 34 0;
#X connect 17 0 35 0;
#X connect 18 0 39 0;
#X connect 19 0 36 0;
#X connect 20 0 37 0;
#X connect 21 0 38 0;
#X connect 22 0 40 0;
#X connect 23 0 25 0;
#X connect 23 0 29 0;
#X connect 23 0 26 0;
#X connect 23 0 30 0;
#X connect 23 0 27 0;
#X connect 23 0 31 0;
#X connect 23 0 28 0;
#X connect 23 0 32 0;
#X connect 23 0 111 0;
#X connect 23 0 112 0;
#X connect 24 0 15 0;
#X connect 24 0 19 0;
#X connect 24 0 20 0;
#X connect 24 0 16 0;
#X connect 24 0 17 0;
#X connect 24 0 18 0;
#X connect 24 0 21 0;
#X connect 24 0 22 0;
#X connect 24 0 115 0;
#X connect 24 0 116 0;
#X connect 25 0 41 0;
#X connect 26 0 42 0;
#X connect 27 0 43 0;
#X connect 28 0 47 0;
#X connect 29 0 44 0;
#X connect 30 0 45 0;
#X connect 31 0 46 0;
#X connect 32 0 48 0;
#X connect 49 0 52 0;
#X connect 50 0 53 0;
#X connect 51 0 54 0;
#X connect 55 0 60 0;
#X connect 56 0 59 0;
#X connect 57 0 61 0;
#X connect 58 0 62 0;
#X connect 63 0 64 0;
#X connect 66 0 68 0;
#X connect 66 0 67 0;
#X connect 67 0 75 0;
#X connect 68 0 74 0;
#X connect 69 0 70 0;
#X connect 70 0 71 0;
#X connect 72 0 73 0;
#X connect 76 0 109 0;
#X connect 76 0 110 0;
#X connect 77 0 93 0;
#X connect 78 0 101 0;
#X connect 79 0 94 0;
#X connect 80 0 95 0;
#X connect 81 0 96 0;
#X connect 82 0 97 0;
#X connect 83 0 98 0;
#X connect 84 0 99 0;
#X connect 85 0 100 0;
#X connect 86 0 102 0;
#X connect 87 0 103 0;
#X connect 88 0 104 0;
#X connect 89 0 105 0;
#X connect 90 0 106 0;
#X connect 91 0 107 0;
#X connect 92 0 108 0;
#X connect 109 0 77 0;
#X connect 109 0 82 0;
#X connect 109 0 83 0;
#X connect 109 0 84 0;
#X connect 109 0 85 0;
#X connect 109 0 81 0;
#X connect 109 0 80 0;
#X connect 109 0 79 0;
#X connect 110 0 78 0;
#X connect 110 0 89 0;
#X connect 110 0 90 0;
#X connect 110 0 86 0;
#X connect 110 0 87 0;
#X connect 110 0 88 0;
#X connect 110 0 91 0;
#X connect 110 0 92 0;
#X connect 111 0 113 0;
#X connect 112 0 114 0;
#X connect 115 0 117 0;
#X connect 116 0 118 0;
#X restore 864 24 pd oscOUT;
#N canvas 0 0 1252 623 harm01 0;
#X floatatom 785 194 5 0 0 0 - - -, f 5;
#X obj 785 162 / 2;
#X floatatom 848 194 5 0 0 0 - - -, f 5;
#X obj 848 162 * 1;
#X obj 785 227 osc~;
#X obj 848 227 osc~;
#X obj 847 468 *~;
#X obj 786 468 *~;
#X floatatom 569 110 5 0 0 0 - - -, f 5;
#X floatatom 659 194 5 0 0 0 - - -, f 5;
#X floatatom 722 194 5 0 0 0 - - -, f 5;
#X obj 659 227 osc~;
#X obj 722 227 osc~;
#X obj 721 468 *~;
#X obj 660 468 *~;
#X obj 722 162 / 3;
#X obj 659 162 / 4;
#X floatatom 533 194 5 0 0 0 - - -, f 5;
#X floatatom 595 194 5 0 0 0 - - -, f 5;
#X obj 533 230 osc~;
#X obj 595 227 osc~;
#X obj 595 468 *~;
#X obj 533 468 *~;
#X obj 595 162 / 5;
#X obj 533 162 / 6;
#X floatatom 409 194 5 0 0 0 - - -, f 5;
#X floatatom 473 194 5 0 0 0 - - -, f 5;
#X obj 409 230 osc~;
#X obj 473 230 osc~;
#X obj 473 468 *~;
#X obj 410 468 *~;
#X obj 473 162 / 7;
#X obj 409 162 / 8;
#X floatatom 624 317 5 0 0 0 - - -, f 5;
#X obj 569 83 inlet;
#X obj 570 521 outlet~;
#X obj 623 295 inlet;
#X obj 414 410 pack 0 10;
#X obj 414 433 line~;
#X obj 414 378 midi2rms protools, f 9;
#X obj 475 410 pack 0 10;
#X obj 475 433 line~;
#X obj 475 378 midi2rms protools, f 9;
#X floatatom 414 341 5 0 0 0 - - -, f 5;
#X floatatom 475 341 5 0 0 0 - - -, f 5;
#X obj 539 410 pack 0 10;
#X obj 539 433 line~;
#X obj 539 378 midi2rms protools, f 9;
#X floatatom 539 341 5 0 0 0 - - -, f 5;
#X obj 601 410 pack 0 10;
#X obj 601 433 line~;
#X obj 601 378 midi2rms protools, f 9;
#X floatatom 601 341 5 0 0 0 - - -, f 5;
#X obj 665 410 pack 0 10;
#X obj 665 433 line~;
#X obj 665 378 midi2rms protools, f 9;
#X floatatom 665 341 5 0 0 0 - - -, f 5;
#X obj 727 410 pack 0 10;
#X obj 727 433 line~;
#X obj 727 378 midi2rms protools, f 9;
#X floatatom 727 341 5 0 0 0 - - -, f 5;
#X obj 791 410 pack 0 10;
#X obj 791 433 line~;
#X obj 791 378 midi2rms protools, f 9;
#X floatatom 791 341 5 0 0 0 - - -, f 5;
#X obj 853 433 line~;
#X floatatom 853 341 5 0 0 0 - - -, f 5;
#X obj 854 404 pack 0 10;
#X obj 854 372 midi2rms protools, f 9;
#X obj 926 348 r vu;
#X obj 926 371 vu 27 80 empty empty -1 -8 0 10 -66577 -1 1 0;
#X obj 853 265 r l1;
#X obj 791 265 r l2;
#X obj 727 265 r l3;
#X obj 665 265 r l4;
#X obj 601 265 r l5;
#X obj 539 265 r l6;
#X obj 414 265 r l8;
#X obj 475 265 r l7;
#X obj 685 212 s ll4;
#X floatatom 285 194 5 0 0 0 - - -, f 5;
#X floatatom 349 194 5 0 0 0 - - -, f 5;
#X obj 285 230 osc~;
#X obj 349 230 osc~;
#X obj 349 468 *~;
#X obj 286 468 *~;
#X obj 290 410 pack 0 10;
#X obj 290 433 line~;
#X obj 290 378 midi2rms protools, f 9;
#X obj 351 410 pack 0 10;
#X obj 351 433 line~;
#X obj 351 378 midi2rms protools, f 9;
#X floatatom 290 341 5 0 0 0 - - -, f 5;
#X floatatom 351 341 5 0 0 0 - - -, f 5;
#X obj 349 162 / 9;
#X obj 285 162 / 10;
#X obj 351 265 r l9;
#X obj 291 265 r l10;
#X connect 0 0 4 0;
#X connect 1 0 0 0;
#X connect 2 0 5 0;
#X connect 3 0 2 0;
#X connect 4 0 7 0;
#X connect 5 0 6 0;
#X connect 6 0 35 0;
#X connect 7 0 35 0;
#X connect 8 0 1 0;
#X connect 8 0 3 0;
#X connect 8 0 15 0;
#X connect 8 0 16 0;
#X connect 8 0 23 0;
#X connect 8 0 24 0;
#X connect 8 0 31 0;
#X connect 8 0 32 0;
#X connect 8 0 94 0;
#X connect 8 0 95 0;
#X connect 9 0 11 0;
#X connect 9 0 79 0;
#X connect 10 0 12 0;
#X connect 11 0 14 0;
#X connect 12 0 13 0;
#X connect 13 0 35 0;
#X connect 14 0 35 0;
#X connect 15 0 10 0;
#X connect 16 0 9 0;
#X connect 17 0 19 0;
#X connect 18 0 20 0;
#X connect 19 0 22 0;
#X connect 20 0 21 0;
#X connect 21 0 35 0;
#X connect 22 0 35 0;
#X connect 23 0 18 0;
#X connect 24 0 17 0;
#X connect 25 0 27 0;
#X connect 26 0 28 0;
#X connect 27 0 30 0;
#X connect 28 0 29 0;
#X connect 29 0 35 0;
#X connect 30 0 35 0;
#X connect 31 0 26 0;
#X connect 32 0 25 0;
#X connect 33 0 66 0;
#X connect 33 0 64 0;
#X connect 33 0 60 0;
#X connect 33 0 56 0;
#X connect 33 0 52 0;
#X connect 33 0 48 0;
#X connect 33 0 44 0;
#X connect 33 0 43 0;
#X connect 33 0 93 0;
#X connect 33 0 92 0;
#X connect 34 0 8 0;
#X connect 36 0 33 0;
#X connect 37 0 38 0;
#X connect 38 0 30 1;
#X connect 39 0 37 0;
#X connect 40 0 41 0;
#X connect 41 0 29 1;
#X connect 42 0 40 0;
#X connect 43 0 39 0;
#X connect 44 0 42 0;
#X connect 45 0 46 0;
#X connect 46 0 22 1;
#X connect 47 0 45 0;
#X connect 48 0 47 0;
#X connect 49 0 50 0;
#X connect 50 0 21 1;
#X connect 51 0 49 0;
#X connect 52 0 51 0;
#X connect 53 0 54 0;
#X connect 54 0 14 1;
#X connect 55 0 53 0;
#X connect 56 0 55 0;
#X connect 57 0 58 0;
#X connect 58 0 13 1;
#X connect 59 0 57 0;
#X connect 60 0 59 0;
#X connect 61 0 62 0;
#X connect 62 0 7 1;
#X connect 63 0 61 0;
#X connect 64 0 63 0;
#X connect 65 0 6 1;
#X connect 66 0 68 0;
#X connect 67 0 65 0;
#X connect 68 0 67 0;
#X connect 69 0 70 0;
#X connect 71 0 66 0;
#X connect 72 0 64 0;
#X connect 73 0 60 0;
#X connect 74 0 56 0;
#X connect 75 0 52 0;
#X connect 76 0 48 0;
#X connect 77 0 43 0;
#X connect 78 0 44 0;
#X connect 80 0 82 0;
#X connect 81 0 83 0;
#X connect 82 0 85 0;
#X connect 83 0 84 0;
#X connect 84 0 35 0;
#X connect 85 0 35 0;
#X connect 86 0 87 0;
#X connect 87 0 85 1;
#X connect 88 0 86 0;
#X connect 89 0 90 0;
#X connect 90 0 84 1;
#X connect 91 0 89 0;
#X connect 92 0 88 0;
#X connect 93 0 91 0;
#X connect 94 0 81 0;
#X connect 95 0 80 0;
#X connect 96 0 93 0;
#X connect 97 0 92 0;
#X restore 315 416 pd harm01;
#X obj 864 300 r on;
#X obj 929 300 r off;
#X obj 995 300 r resetMain;
#X obj 113 73 r fD;
#X obj 188 73 r fI;
#X obj 573 217 r oD;
#X obj 644 217 r oI;
#X obj 603 9 r rand;
#X obj 233 22 r p1;
#X obj 273 22 r p2;
#X obj 311 22 r p3;
#X obj 351 22 r p4;
#X obj 420 22 r p5;
#X obj 460 22 r p6;
#X obj 498 22 r p7;
#X obj 539 22 r p8;
#X obj 233 153 r p9;
#X obj 273 153 r p10;
#X obj 312 153 r p11;
#X obj 351 153 r p12;
#X obj 420 153 r p13;
#X obj 460 153 r p14;
#X obj 498 153 r p15;
#X obj 539 153 r p16;
#X obj 233 46 bng 15 250 50 0 empty empty empty 17 7 0 10 -262144 -1
-1;
#X obj 273 46 bng 15 250 50 0 empty empty empty 17 7 0 10 -262144 -1
-1;
#X obj 311 46 bng 15 250 50 0 empty empty empty 17 7 0 10 -262144 -1
-1;
#X obj 351 46 bng 15 250 50 0 empty empty empty 17 7 0 10 -262144 -1
-1;
#X obj 420 46 bng 15 250 50 0 empty empty empty 17 7 0 10 -262144 -1
-1;
#X obj 460 46 bng 15 250 50 0 empty empty empty 17 7 0 10 -262144 -1
-1;
#X obj 498 46 bng 15 250 50 0 empty empty empty 17 7 0 10 -262144 -1
-1;
#X obj 539 46 bng 15 250 50 0 empty empty empty 17 7 0 10 -262144 -1
-1;
#X obj 233 177 bng 15 250 50 0 empty empty empty 17 7 0 10 -262144
-1 -1;
#X obj 273 177 bng 15 250 50 0 empty empty empty 17 7 0 10 -262144
-1 -1;
#X obj 311 177 bng 15 250 50 0 empty empty empty 17 7 0 10 -262144
-1 -1;
#X obj 351 177 bng 15 250 50 0 empty empty empty 17 7 0 10 -262144
-1 -1;
#X obj 420 177 bng 15 250 50 0 empty empty empty 17 7 0 10 -262144
-1 -1;
#X obj 460 177 bng 15 250 50 0 empty empty empty 17 7 0 10 -262144
-1 -1;
#X obj 498 177 bng 15 250 50 0 empty empty empty 17 7 0 10 -262144
-1 -1;
#X obj 539 177 bng 15 250 50 0 empty empty empty 17 7 0 10 -262144
-1 -1;
#X msg 460 201 3;
#X msg 498 201 6;
#X msg 539 201 9;
#X msg 351 201 0;
#X obj 380 598 dac~ 1 2;
#X obj 793 440 nbx 5 56 -1e+037 1e+037 0 0 empty empty empty 0 -8 0
44 -262144 -1 -1 0 256 0;
#X obj 435 132 s freq;
#X obj 792 416 r freq;
#X obj 476 282 s offset;
#X obj 792 527 nbx 6 48 -1e+037 1e+037 0 0 empty empty empty 0 -8 0
38 -262144 -1 -1 0 256 0;
#X obj 792 505 r offset;
#X obj 585 45 random 512;
#X obj 604 478 nbx 7 30 -1e+037 1e+037 0 0 empty empty empty 0 -8 0
24 -262144 -1 -1 0 256 0;
#X obj 1047 478 nbx 8 30 -1e+037 1e+037 0 0 empty empty empty 0 -8
0 24 -262144 -1 -1 0 256 0;
#X obj 604 457 r ll4;
#X obj 1047 457 r lr4;
#X msg 978 239 open 6;
#X connect 0 0 1 0;
#X connect 3 0 2 0;
#X connect 4 0 11 0;
#X connect 5 0 11 0;
#X connect 6 0 11 0;
#X connect 7 0 11 0;
#X connect 8 0 11 0;
#X connect 9 0 27 0;
#X connect 10 0 26 0;
#X connect 11 0 44 0;
#X connect 11 0 43 0;
#X connect 11 0 9 0;
#X connect 11 0 10 0;
#X connect 11 0 130 0;
#X connect 12 0 45 0;
#X connect 12 0 47 0;
#X connect 12 0 72 0;
#X connect 12 0 132 0;
#X connect 13 0 14 0;
#X connect 13 1 16 0;
#X connect 15 0 11 0;
#X connect 17 0 19 0;
#X connect 18 0 38 0;
#X connect 19 0 18 0;
#X connect 20 0 11 0;
#X connect 21 0 12 0;
#X connect 22 0 12 0;
#X connect 23 0 12 0;
#X connect 24 0 49 0;
#X connect 25 0 12 0;
#X connect 26 0 24 0;
#X connect 27 0 83 0;
#X connect 28 0 10 1;
#X connect 28 0 9 1;
#X connect 29 0 135 0;
#X connect 30 0 11 0;
#X connect 31 0 128 0;
#X connect 31 0 128 1;
#X connect 31 1 128 0;
#X connect 31 1 128 1;
#X connect 32 0 33 0;
#X connect 32 1 33 1;
#X connect 32 2 33 2;
#X connect 34 0 83 1;
#X connect 34 0 24 1;
#X connect 35 0 12 0;
#X connect 35 0 11 0;
#X connect 36 0 11 0;
#X connect 37 0 39 0;
#X connect 40 0 45 1;
#X connect 41 0 43 1;
#X connect 42 0 44 1;
#X connect 43 0 11 0;
#X connect 44 0 11 0;
#X connect 45 0 12 0;
#X connect 46 0 47 1;
#X connect 47 0 12 0;
#X connect 48 0 17 0;
#X connect 48 0 31 0;
#X connect 49 0 17 0;
#X connect 49 0 31 1;
#X connect 50 0 71 0;
#X connect 51 0 68 0;
#X connect 52 0 51 0;
#X connect 53 0 71 0;
#X connect 54 0 64 0;
#X connect 55 0 54 0;
#X connect 56 0 65 0;
#X connect 57 0 56 0;
#X connect 58 0 69 0;
#X connect 59 0 58 0;
#X connect 60 0 66 0;
#X connect 61 0 60 0;
#X connect 62 0 67 0;
#X connect 63 0 62 0;
#X connect 64 0 68 0;
#X connect 64 1 68 1;
#X connect 65 0 68 0;
#X connect 65 1 68 2;
#X connect 66 0 68 0;
#X connect 66 1 68 4;
#X connect 67 0 68 0;
#X connect 67 1 68 5;
#X connect 68 0 70 0;
#X connect 69 0 68 0;
#X connect 69 1 68 3;
#X connect 70 0 71 0;
#X connect 72 0 9 0;
#X connect 72 0 10 0;
#X connect 72 1 28 0;
#X connect 74 0 73 0;
#X connect 75 0 54 0;
#X connect 75 0 51 0;
#X connect 75 0 56 0;
#X connect 75 0 58 0;
#X connect 75 0 60 0;
#X connect 75 0 62 0;
#X connect 76 0 52 0;
#X connect 77 0 55 0;
#X connect 78 0 57 0;
#X connect 79 0 59 0;
#X connect 80 0 61 0;
#X connect 81 0 63 0;
#X connect 83 0 48 0;
#X connect 84 0 0 0;
#X connect 85 0 3 0;
#X connect 86 0 37 0;
#X connect 87 0 42 0;
#X connect 88 0 41 0;
#X connect 89 0 46 0;
#X connect 90 0 40 0;
#X connect 91 0 29 0;
#X connect 92 0 108 0;
#X connect 93 0 109 0;
#X connect 94 0 110 0;
#X connect 95 0 111 0;
#X connect 96 0 112 0;
#X connect 97 0 113 0;
#X connect 98 0 114 0;
#X connect 99 0 115 0;
#X connect 100 0 116 0;
#X connect 101 0 117 0;
#X connect 102 0 118 0;
#X connect 103 0 119 0;
#X connect 104 0 120 0;
#X connect 105 0 121 0;
#X connect 106 0 122 0;
#X connect 107 0 123 0;
#X connect 108 0 36 0;
#X connect 109 0 15 0;
#X connect 110 0 4 0;
#X connect 111 0 5 0;
#X connect 112 0 20 0;
#X connect 113 0 6 0;
#X connect 114 0 7 0;
#X connect 115 0 8 0;
#X connect 116 0 21 0;
#X connect 117 0 25 0;
#X connect 118 0 22 0;
#X connect 119 0 127 0;
#X connect 120 0 23 0;
#X connect 121 0 124 0;
#X connect 122 0 125 0;
#X connect 123 0 126 0;
#X connect 124 0 12 0;
#X connect 125 0 12 0;
#X connect 126 0 12 0;
#X connect 127 0 12 0;
#X connect 131 0 129 0;
#X connect 134 0 133 0;
#X connect 135 0 30 0;
#X connect 138 0 136 0;
#X connect 139 0 137 0;
#X connect 140 0 71 0;
